<svg width="48" height="47" viewBox="0 0 48 47" fill="none" xmlns="http://www.w3.org/2000/svg">
<path d="M45.3397 18.8961C42.1903 18.0643 37.9461 21.5697 35.8315 19.3417C33.267 16.6384 39.2358 11.1279 38.6209 6.09264C38.126 1.96345 33.3569 0.0325291 28.6328 0.00282266C24.9216 -0.0498634 21.2374 0.635488 17.7984 2.0183C14.3594 3.40111 11.2355 5.45327 8.61164 8.05327C-1.34647 17.8415 -3.49106 31.8184 6.55703 41.4433C15.8703 50.3553 31.4673 47.7262 40.5556 39.3639C43.3656 36.6301 45.5273 33.3122 46.8844 29.6499C48.5041 25.3424 48.654 19.7873 45.3397 18.8961ZM11.1012 12.4795C11.9135 12.1637 12.8184 12.1748 13.6226 12.5106C14.4267 12.8464 15.0665 13.4802 15.4054 14.2768C15.5403 15.1305 15.3315 16.0026 14.8238 16.7053C14.3162 17.4081 13.5503 17.8854 12.6909 18.0346C11.8788 18.3545 10.9724 18.3453 10.1671 18.009C9.36189 17.6728 8.72241 17.0365 8.38668 16.2374C8.25571 15.3842 8.4661 14.5141 8.97308 13.8123C9.48006 13.1104 10.2436 12.6323 11.1012 12.4795ZM4.6074 27.7041C4.4728 26.8482 4.68366 25.9742 5.1944 25.271C5.70514 24.5679 6.47474 24.092 7.33688 23.9462C8.14713 23.631 9.04983 23.6425 9.85157 23.9785C10.6533 24.3144 11.2903 24.948 11.6261 25.7435C11.7444 26.5897 11.5281 27.4484 11.0223 28.1404C10.5164 28.8323 9.76022 29.304 8.91158 29.4568C8.10446 29.7715 7.20569 29.7648 6.40342 29.4381C5.60115 29.1115 4.95757 28.4901 4.6074 27.7041ZM15.1054 40.0768C14.2934 40.3967 13.3869 40.3875 12.5817 40.0512C11.7764 39.715 11.1369 39.0787 10.8012 38.2796C10.6699 37.4286 10.8782 36.5604 11.3821 35.8589C11.886 35.1574 12.6459 34.6778 13.5007 34.5217C14.3131 34.2059 15.2179 34.217 16.0221 34.5528C16.8263 34.8886 17.4661 35.5224 17.8049 36.319C17.8708 36.7482 17.8505 37.1861 17.7451 37.6076C17.6398 38.029 17.4514 38.4257 17.1908 38.7748C16.9302 39.124 16.6026 39.4187 16.2267 39.6422C15.8508 39.8656 15.4341 40.0133 15.0004 40.0768H15.1054ZM19.4996 9.04844C19.3686 8.19528 19.579 7.32517 20.086 6.62332C20.593 5.92147 21.3565 5.4433 22.2141 5.29057C23.0267 4.97861 23.93 4.99169 24.7332 5.32704C25.5363 5.6624 26.1764 6.29376 26.5182 7.08781C26.6528 7.94371 26.442 8.81769 25.9312 9.52086C25.4205 10.224 24.6509 10.6999 23.7888 10.8457C22.9788 11.1649 22.0745 11.1553 21.2717 10.8189C20.4689 10.4825 19.8322 9.84645 19.4996 9.04844ZM28.2279 42.0077C27.4159 42.3276 26.5094 42.3184 25.7042 41.9821C24.8989 41.6459 24.2595 41.0096 23.9237 40.2105C23.7928 39.3573 24.0032 38.4872 24.5101 37.7854C25.0171 37.0835 25.7806 36.6054 26.6382 36.4526C27.4509 36.1407 28.3542 36.1538 29.1573 36.4891C29.9604 36.8245 30.6005 37.4558 30.9424 38.2499C31.0761 39.1124 30.8592 39.9922 30.3391 40.6965C29.8191 41.4009 29.0383 41.8724 28.1679 42.0077H28.2279ZM35.7265 26.4713C35.2634 27.64 34.3523 28.5798 33.192 29.0854C32.5302 29.3745 31.8156 29.5261 31.0924 29.531C30.3053 29.5567 29.527 29.361 28.8475 28.9667C28.1681 28.5724 27.6153 27.9956 27.2531 27.303C27.0291 26.842 26.9041 26.34 26.886 25.8286C26.868 25.3173 26.9572 24.8078 27.1481 24.3324C27.6112 23.1637 28.5224 22.2239 29.6826 21.7182C30.7204 21.1853 31.9269 21.0732 33.0466 21.4059C34.1663 21.7386 35.1113 22.4899 35.6815 23.5006C35.8866 23.9721 35.9924 24.48 35.9924 24.9934C35.9924 25.5067 35.8866 26.0147 35.6815 26.4861L35.7265 26.4713Z" fill="url(#paint0_linear_3_116)"/>
<defs>
<linearGradient id="paint0_linear_3_116" x1="24" y1="0" x2="24" y2="47" gradientUnits="userSpaceOnUse">
<stop stop-color="#9847FF"/>
<stop offset="1" stop-color="#003FE2" stop-opacity="0.76"/>
</linearGradient>
</defs>
</svg>
